# xmcd CD database file
#
# Track frame offsets:
#	150
#	15114
#	30739
#	45821
#	60203
#	78638
#	94193
#	107672
#	124637
#	145256
#	161876
#	176243
#	193476
#
# Disc length: 2766 seconds
#
# Revision: 1
# Processed by: cddbd v1.5.2PL0 Copyright (c) Steve Scherf et al.
# Submitted via: CDex 1.51
#
DISCID=a40acc0d
DTITLE=Norah Jones - Feels Like Home
DYEAR=2004
DGENRE=Blues
TTITLE0=Sunrise
TTITLE1=What Am I To You?
TTITLE2=Those Sweet Words
TTITLE3=Carnival Town
TTITLE4=In The Morning
TTITLE5=Be Here To Love Me
TTITLE6=Creepin' In
TTITLE7=Toes
TTITLE8=Humble Me
TTITLE9=Above Ground
TTITLE10=The Long Way Home
TTITLE11=The Prettiest Thing
TTITLE12=Norah Jones - Don't Miss You At All
EXTD=YEAR: 2004
EXTT0=
EXTT1=
EXTT2=
EXTT3=
EXTT4=
EXTT5=
EXTT6=
EXTT7=
EXTT8=
EXTT9=
EXTT10=
EXTT11=
EXTT12=
PLAYORDER=
